<svg xmlns="http://www.w3.org/2000/svg" xmlns:xlink="http://www.w3.org/1999/xlink" viewBox="0 0 241.83 241.83"><defs><style>.cls-1{fill:url(#linear-gradient);}.cls-2,.cls-4{fill:#fff;}.cls-2{stroke:#99f1ff;stroke-miterlimit:10;stroke-width:3px;}.cls-3{fill:#08cbfe;}.cls-4{stroke:#10d2ff;stroke-width:0.5px;}</style><linearGradient id="linear-gradient" x1="51.18" y1="10.93" x2="247.18" y2="320.07" gradientUnits="userSpaceOnUse"><stop offset="0.14" stop-color="#fff"/><stop offset="0.44" stop-color="#7de4fe"/><stop offset="0.66" stop-color="#29d2fe"/><stop offset="0.75" stop-color="#08cbfe"/></linearGradient></defs><title>Asset 2</title><g id="Layer_2" data-name="Layer 2"><g id="Layer_1-2" data-name="Layer 1"><circle class="cls-1" cx="120.92" cy="120.92" r="120.92"/><circle class="cls-2" cx="120.92" cy="120.92" r="107.93"/><g id="Layer_19" data-name="Layer 19"><path class="cls-3" d="M178.26,122.34V48.86H63.57v73.48h46.81v4.73H85.91V131h68.52v-3.9H130.49v-4.73ZM72,111.52V57.25h97.91v54.26H72Z"/><path class="cls-3" d="M90.23,79.3h61.19v-15H90.23Zm1.22-13.78h58.76V78.08H91.45Z"/><path class="cls-3" d="M90.17,95.22H109V81.69H90.17Zm1.22-12.31h16.39V94H91.39Z"/><path class="cls-3" d="M111.34,95.22h18.82V81.69H111.34Zm1.22-12.31h16.38V94H112.56Z"/><path class="cls-3" d="M151.48,81.69H132.66V95.22h18.82ZM150.26,94H133.88V82.91h16.38Z"/><rect class="cls-3" x="90.17" y="98.29" width="16.96" height="1.18"/><rect class="cls-3" x="90.17" y="100.46" width="18.82" height="1.18"/><rect class="cls-3" x="90.17" y="102.7" width="15.33" height="1.18"/><rect class="cls-3" x="90.17" y="105.13" width="17.15" height="1.18"/><rect class="cls-3" x="89.07" y="107.42" width="11" height="1.18"/><rect class="cls-3" x="111.34" y="98.29" width="16.96" height="1.18"/><rect class="cls-3" x="111.34" y="100.46" width="18.82" height="1.18"/><rect class="cls-3" x="111.34" y="102.7" width="15.33" height="1.18"/><rect class="cls-3" x="111.34" y="105.13" width="17.15" height="1.18"/><rect class="cls-3" x="110.24" y="107.42" width="11" height="1.18"/><rect class="cls-3" x="132.85" y="98.2" width="16.96" height="1.18"/><rect class="cls-3" x="132.85" y="100.37" width="18.82" height="1.18"/><rect class="cls-3" x="132.85" y="102.61" width="15.33" height="1.18"/><rect class="cls-3" x="132.85" y="105.04" width="17.15" height="1.18"/><rect class="cls-3" x="131.74" y="107.32" width="10.99" height="1.18"/><path class="cls-3" d="M118.28,59.39H90.17v3.42h28.11Zm-1.21,2.21H91.38v-1h25.69Z"/></g><path class="cls-3" d="M50.2,152.86h2.12a6.93,6.93,0,0,1,2.48.32,2.5,2.5,0,0,1,1.18,1,3.15,3.15,0,0,1,.45,1.7,2.93,2.93,0,0,1-.49,1.74,3,3,0,0,1-1.5,1l2.49,4.67H54.74l-2.36-4.45H52.2v4.45h-2Zm2,4.11h.63a2.42,2.42,0,0,0,1.31-.25.94.94,0,0,0,.36-.83,1,1,0,0,0-.18-.6,1,1,0,0,0-.48-.36,3.33,3.33,0,0,0-1.09-.12H52.2Z"/><path class="cls-3" d="M66.12,160.05H59.85a2.12,2.12,0,0,0,.73,1.32,2.29,2.29,0,0,0,1.5.49,2.6,2.6,0,0,0,1.88-.77l1.64.77a3.91,3.91,0,0,1-1.47,1.29,4.57,4.57,0,0,1-2,.42,4,4,0,0,1-3-1.15A3.91,3.91,0,0,1,58,159.53a4,4,0,0,1,1.14-2.95A3.85,3.85,0,0,1,62,155.4a4,4,0,0,1,3,1.18,4.21,4.21,0,0,1,1.15,3.1Zm-2-1.54a2,2,0,0,0-.76-1,2.22,2.22,0,0,0-1.32-.41,2.29,2.29,0,0,0-1.43.46,2.5,2.5,0,0,0-.72,1Z"/><path class="cls-3" d="M72.45,156.69l-1.21,1.2a2.06,2.06,0,0,0-1.33-.73.84.84,0,0,0-.51.14.42.42,0,0,0-.19.35.44.44,0,0,0,.12.29,2.09,2.09,0,0,0,.58.36l.71.36a4.18,4.18,0,0,1,1.55,1.13,2.26,2.26,0,0,1,.42,1.36,2.23,2.23,0,0,1-.76,1.73,2.89,2.89,0,0,1-2,.69,3.24,3.24,0,0,1-2.72-1.33l1.2-1.31a2.76,2.76,0,0,0,.8.65,1.73,1.73,0,0,0,.82.25.92.92,0,0,0,.62-.19.52.52,0,0,0,.24-.43c0-.3-.28-.59-.85-.87l-.66-.33c-1.25-.64-1.88-1.43-1.88-2.38a2.05,2.05,0,0,1,.71-1.58,2.6,2.6,0,0,1,1.82-.65,3.18,3.18,0,0,1,1.42.33A3.06,3.06,0,0,1,72.45,156.69Z"/><path class="cls-3" d="M76.07,155.6v.86a3.75,3.75,0,0,1,1.14-.8,3.47,3.47,0,0,1,3.9.89,4.17,4.17,0,0,1,1.06,2.95,4.07,4.07,0,0,1-1.1,2.9,3.45,3.45,0,0,1-2.61,1.17,3.19,3.19,0,0,1-1.24-.24,3.78,3.78,0,0,1-1.15-.78v3.66H74.13V155.6Zm2,1.6a2,2,0,0,0-1.52.63,2.23,2.23,0,0,0-.61,1.64,2.33,2.33,0,0,0,.61,1.68,2.12,2.12,0,0,0,3,0,2.33,2.33,0,0,0,.61-1.66,2.29,2.29,0,0,0-.6-1.64A2,2,0,0,0,78.11,157.2Z"/><path class="cls-3" d="M87.43,155.4a4.06,4.06,0,0,1,2.07.55A3.93,3.93,0,0,1,91,157.44a4.08,4.08,0,0,1,0,4.09,4,4,0,0,1-1.49,1.5,4.11,4.11,0,0,1-2.08.54,3.89,3.89,0,0,1-2.85-1.19,4.12,4.12,0,0,1,.15-5.92A3.88,3.88,0,0,1,87.43,155.4Zm0,1.84a2,2,0,0,0-1.52.63,2.25,2.25,0,0,0-.6,1.62,2.29,2.29,0,0,0,.6,1.64,2,2,0,0,0,1.51.63,2,2,0,0,0,1.52-.64,2.5,2.5,0,0,0,0-3.26A2,2,0,0,0,87.47,157.24Z"/><path class="cls-3" d="M93.15,155.6H95.1v.8a4.32,4.32,0,0,1,1.2-.78,2.81,2.81,0,0,1,1.1-.22,2.66,2.66,0,0,1,2,.81,2.76,2.76,0,0,1,.68,2v5.13H98.11V160a8.92,8.92,0,0,0-.12-1.85,1.32,1.32,0,0,0-.44-.7,1.25,1.25,0,0,0-.76-.23,1.44,1.44,0,0,0-1,.39,2.16,2.16,0,0,0-.59,1.1,9.69,9.69,0,0,0-.08,1.57v3.12H93.15Z"/><path class="cls-3" d="M106.68,156.69l-1.21,1.2a2.06,2.06,0,0,0-1.33-.73.89.89,0,0,0-.52.14.42.42,0,0,0-.06.64,1.93,1.93,0,0,0,.58.36l.71.36a4.27,4.27,0,0,1,1.55,1.13,2.26,2.26,0,0,1,.42,1.36,2.23,2.23,0,0,1-.76,1.73,2.9,2.9,0,0,1-2,.69,3.23,3.23,0,0,1-2.71-1.33l1.2-1.31a2.76,2.76,0,0,0,.8.65,1.73,1.73,0,0,0,.82.25.92.92,0,0,0,.62-.19.52.52,0,0,0,.24-.43c0-.3-.29-.59-.85-.87l-.66-.33c-1.26-.64-1.88-1.43-1.88-2.38a2.05,2.05,0,0,1,.71-1.58,2.59,2.59,0,0,1,1.81-.65,3.19,3.19,0,0,1,1.43.33A3.14,3.14,0,0,1,106.68,156.69Z"/><path class="cls-3" d="M109.12,152.4a1.19,1.19,0,0,1,.88.37,1.26,1.26,0,0,1,.37.9,1.22,1.22,0,0,1-.37.89,1.16,1.16,0,0,1-.87.37,1.19,1.19,0,0,1-.88-.38,1.25,1.25,0,0,1,.87-2.15Zm-1,3.2h2v7.77h-2Z"/><path class="cls-3" d="M111,155.6h2l2,4.58,2-4.58h2l-3.31,7.77h-1.26Z"/><path class="cls-3" d="M127.84,160.05h-6.26a2.11,2.11,0,0,0,.72,1.32,2.31,2.31,0,0,0,1.5.49,2.64,2.64,0,0,0,1.89-.77l1.64.77a3.91,3.91,0,0,1-1.47,1.29,4.61,4.61,0,0,1-2,.42,4,4,0,0,1-3-1.15,4,4,0,0,1-1.15-2.89,4,4,0,0,1,1.15-2.95,3.82,3.82,0,0,1,2.87-1.18,4,4,0,0,1,3,1.18,4.25,4.25,0,0,1,1.15,3.1Zm-2-1.54a2,2,0,0,0-.76-1,2.22,2.22,0,0,0-1.32-.41,2.31,2.31,0,0,0-1.43.46,2.5,2.5,0,0,0-.72,1Z"/><path class="cls-3" d="M132.93,152.86h2l1.51,6.71,1.88-6.71H140l1.91,6.71,1.5-6.71h2L143,163.37H141l-1.93-6.79-1.9,6.79h-1.9Z"/><path class="cls-3" d="M154.46,160.05h-6.27a2.12,2.12,0,0,0,.73,1.32,2.29,2.29,0,0,0,1.5.49,2.6,2.6,0,0,0,1.88-.77l1.64.77a3.91,3.91,0,0,1-1.47,1.29,4.57,4.57,0,0,1-2,.42,4,4,0,0,1-3-1.15,3.91,3.91,0,0,1-1.15-2.89,4,4,0,0,1,1.14-2.95,3.85,3.85,0,0,1,2.88-1.18,4,4,0,0,1,3,1.18,4.21,4.21,0,0,1,1.15,3.1Zm-2-1.54a2,2,0,0,0-.76-1,2.22,2.22,0,0,0-1.32-.41,2.32,2.32,0,0,0-1.44.46,2.6,2.6,0,0,0-.71,1Z"/><path class="cls-3" d="M158,152.6v3.86a3.75,3.75,0,0,1,1.14-.8,3.41,3.41,0,0,1,1.32-.26,3.38,3.38,0,0,1,2.58,1.15,4.18,4.18,0,0,1,1.07,2.95,4.07,4.07,0,0,1-1.1,2.9,3.49,3.49,0,0,1-2.61,1.17,3.24,3.24,0,0,1-1.25-.24,3.78,3.78,0,0,1-1.15-.78v.82H156V152.6Zm2.05,4.6a2.05,2.05,0,0,0-1.53.63,2.28,2.28,0,0,0-.61,1.64,2.37,2.37,0,0,0,.61,1.68,2.05,2.05,0,0,0,1.53.63,2,2,0,0,0,1.5-.64,2.33,2.33,0,0,0,.61-1.66,2.29,2.29,0,0,0-.6-1.64A2,2,0,0,0,160,157.2Z"/><path class="cls-3" d="M170.45,156.69l-1.21,1.2a2.08,2.08,0,0,0-1.34-.73.84.84,0,0,0-.51.14.45.45,0,0,0-.19.35.44.44,0,0,0,.12.29,2.09,2.09,0,0,0,.58.36l.72.36a4.27,4.27,0,0,1,1.55,1.13,2.26,2.26,0,0,1,.42,1.36,2.23,2.23,0,0,1-.76,1.73,2.93,2.93,0,0,1-2,.69,3.22,3.22,0,0,1-2.71-1.33l1.2-1.31a2.52,2.52,0,0,0,.8.65,1.73,1.73,0,0,0,.82.25,1,1,0,0,0,.62-.19.51.51,0,0,0,.23-.43c0-.3-.28-.59-.85-.87l-.65-.33c-1.26-.64-1.89-1.43-1.89-2.38a2.08,2.08,0,0,1,.71-1.58,2.62,2.62,0,0,1,1.82-.65,3.15,3.15,0,0,1,1.42.33A3.09,3.09,0,0,1,170.45,156.69Z"/><path class="cls-3" d="M172.89,152.4a1.19,1.19,0,0,1,.88.37,1.25,1.25,0,0,1,.36.9,1.21,1.21,0,0,1-.36.89,1.16,1.16,0,0,1-.87.37,1.21,1.21,0,0,1-.89-.38,1.26,1.26,0,0,1-.36-.91,1.22,1.22,0,0,1,.36-.88A1.19,1.19,0,0,1,172.89,152.4Zm-1,3.2h2v7.77h-2Z"/><path class="cls-3" d="M175.87,152.74h1.95v2.86H179v1.68h-1.15v6.09h-1.95v-6.09h-1V155.6h1Z"/><path class="cls-3" d="M187.8,160.05h-6.26a2.11,2.11,0,0,0,.72,1.32,2.32,2.32,0,0,0,1.51.49,2.59,2.59,0,0,0,1.87-.77l1.65.77a3.91,3.91,0,0,1-1.47,1.29,4.61,4.61,0,0,1-2,.42,4,4,0,0,1-3-1.15,3.91,3.91,0,0,1-1.15-2.89,4,4,0,0,1,1.15-2.95,3.82,3.82,0,0,1,2.87-1.18,4,4,0,0,1,3,1.18,4.25,4.25,0,0,1,1.15,3.1Zm-2-1.54a2,2,0,0,0-.76-1,2.22,2.22,0,0,0-1.32-.41,2.31,2.31,0,0,0-1.43.46,2.5,2.5,0,0,0-.72,1Z"/><path class="cls-3" d="M40.85,170.42h2.37a7.77,7.77,0,0,1,3.4.56,4.43,4.43,0,0,1,1.84,1.85,6.44,6.44,0,0,1,.31,5.22,4.53,4.53,0,0,1-1.11,1.68,3.82,3.82,0,0,1-1.54.93,10.9,10.9,0,0,1-2.86.26H40.85Zm2,1.92V179h.92a4.64,4.64,0,0,0,2-.31,2.37,2.37,0,0,0,1-1.06,3.81,3.81,0,0,0,.4-1.83,3.51,3.51,0,0,0-.94-2.6,3.76,3.76,0,0,0-2.71-.83Z"/><path class="cls-3" d="M58.65,177.6H52.39a2.08,2.08,0,0,0,.73,1.32,2.29,2.29,0,0,0,1.5.49,2.61,2.61,0,0,0,1.88-.77l1.64.77a3.91,3.91,0,0,1-1.47,1.29,4.58,4.58,0,0,1-2,.42,4,4,0,0,1-3-1.15,3.91,3.91,0,0,1-1.15-2.89,4,4,0,0,1,1.14-3A3.84,3.84,0,0,1,54.53,173a4,4,0,0,1,3,1.18,4.21,4.21,0,0,1,1.15,3.1Zm-1.95-1.54a1.9,1.9,0,0,0-.76-1.05,2.22,2.22,0,0,0-1.32-.41,2.31,2.31,0,0,0-1.43.46,2.5,2.5,0,0,0-.71,1Z"/><path class="cls-3" d="M65,174.24l-1.21,1.2a2.06,2.06,0,0,0-1.33-.73.89.89,0,0,0-.52.14.44.44,0,0,0-.18.35.46.46,0,0,0,.11.29,2.19,2.19,0,0,0,.59.36l.71.36a4.27,4.27,0,0,1,1.55,1.13,2.26,2.26,0,0,1,.42,1.36,2.23,2.23,0,0,1-.76,1.73,2.93,2.93,0,0,1-2,.69,3.22,3.22,0,0,1-2.71-1.33l1.2-1.31a2.63,2.63,0,0,0,.8.65,1.73,1.73,0,0,0,.82.25.94.94,0,0,0,.62-.19.52.52,0,0,0,.24-.43c0-.3-.29-.59-.85-.87l-.66-.33c-1.26-.64-1.89-1.43-1.89-2.38a2.08,2.08,0,0,1,.71-1.58,2.62,2.62,0,0,1,1.82-.65,3.19,3.19,0,0,1,1.43.33A3.14,3.14,0,0,1,65,174.24Z"/><path class="cls-3" d="M67.43,170a1.19,1.19,0,0,1,.88.37,1.25,1.25,0,0,1,.36.9,1.21,1.21,0,0,1-.36.89,1.16,1.16,0,0,1-.87.37,1.17,1.17,0,0,1-.88-.38,1.23,1.23,0,0,1-.37-.91A1.25,1.25,0,0,1,67.43,170Zm-1,3.2h2v7.77h-2Z"/><path class="cls-3" d="M75.92,173.15h1.94v6.66a4.46,4.46,0,0,1-.79,2.9A4,4,0,0,1,73.86,184a5.64,5.64,0,0,1-1.92-.28,3.33,3.33,0,0,1-2.11-2.19H72a1.77,1.77,0,0,0,.74.5,3.06,3.06,0,0,0,1.06.17,2.79,2.79,0,0,0,1.26-.25,1.45,1.45,0,0,0,.68-.63,3.14,3.14,0,0,0,.2-1.32,3.42,3.42,0,0,1-1.08.74,3.7,3.7,0,0,1-3.92-.91,4,4,0,0,1-1.08-2.85A4,4,0,0,1,71,174a3.42,3.42,0,0,1,2.47-1,3.2,3.2,0,0,1,1.27.25,3.85,3.85,0,0,1,1.2.81Zm-2,1.62a2,2,0,0,0-1.52.62,2.13,2.13,0,0,0-.6,1.55,2.19,2.19,0,0,0,.62,1.6,2.09,2.09,0,0,0,1.54.62,2,2,0,0,0,1.5-.61A2.2,2.2,0,0,0,76,177a2.14,2.14,0,0,0-.6-1.58A2,2,0,0,0,73.89,174.77Z"/><path class="cls-3" d="M79.83,173.15h2v.8a4.32,4.32,0,0,1,1.2-.78,2.84,2.84,0,0,1,1.1-.22,2.65,2.65,0,0,1,2,.81,2.76,2.76,0,0,1,.68,2v5.13H84.79v-3.4a8.92,8.92,0,0,0-.12-1.85,1.26,1.26,0,0,0-.44-.69,1.19,1.19,0,0,0-.76-.24,1.44,1.44,0,0,0-1,.39,2.16,2.16,0,0,0-.59,1.1,9.69,9.69,0,0,0-.08,1.57v3.12h-2Z"/><path class="cls-3" d="M99.5,176.79l1.19,1.37-.54.49-.54.48,1.69,1.79H98.88l-.7-.71a6.12,6.12,0,0,1-3.08,1,2.73,2.73,0,0,1-1.95-.7,2.39,2.39,0,0,1-.75-1.82,3.21,3.21,0,0,1,.43-1.58,5.47,5.47,0,0,1,1.45-1.53,4.23,4.23,0,0,1-1-2.41,2.37,2.37,0,0,1,.67-1.54,2.43,2.43,0,0,1,1.9-.76,2.38,2.38,0,0,1,1.89.75,2.31,2.31,0,0,1,.66,1.52,2.38,2.38,0,0,1-.3,1.15,8.79,8.79,0,0,1-1.4,1.63c.85,1,1.41,1.63,1.65,1.87C98.49,177.65,98.87,177.33,99.5,176.79Zm-2.61,2a20.92,20.92,0,0,1-1.56-1.8c-.7.59-1,1.1-1,1.54a.74.74,0,0,0,.28.56,1.09,1.09,0,0,0,.74.26A3.41,3.41,0,0,0,96.89,178.82Zm-1.19-4.34c.53-.45.79-.85.79-1.2a.57.57,0,0,0-.18-.44.69.69,0,0,0-.93,0,.61.61,0,0,0-.19.45A2,2,0,0,0,95.7,174.48Z"/><path class="cls-3" d="M107,170.42h2.37a7.8,7.8,0,0,1,3.4.56,4.55,4.55,0,0,1,1.84,1.85,6.44,6.44,0,0,1,.31,5.22,4.65,4.65,0,0,1-1.11,1.68,3.89,3.89,0,0,1-1.54.93,11,11,0,0,1-2.87.26H107Zm2,1.92V179h.93a4.64,4.64,0,0,0,2-.31,2.42,2.42,0,0,0,1-1.06,3.93,3.93,0,0,0,.39-1.83,3.5,3.5,0,0,0-.93-2.6,3.76,3.76,0,0,0-2.71-.83Z"/><path class="cls-3" d="M124.76,177.6H118.5a2.11,2.11,0,0,0,.72,1.32,2.34,2.34,0,0,0,1.51.49,2.61,2.61,0,0,0,1.88-.77l1.64.77a3.91,3.91,0,0,1-1.47,1.29,4.58,4.58,0,0,1-2,.42,4,4,0,0,1-3-1.15,4,4,0,0,1-1.15-2.89,4.06,4.06,0,0,1,1.15-3,3.82,3.82,0,0,1,2.87-1.18,4,4,0,0,1,3,1.18,4.21,4.21,0,0,1,1.15,3.1Zm-2-1.54a2,2,0,0,0-.76-1.05,2.22,2.22,0,0,0-1.32-.41,2.31,2.31,0,0,0-1.43.46,2.4,2.4,0,0,0-.71,1Z"/><path class="cls-3" d="M125.51,173.15h2l2,4.59,2-4.59h2l-3.3,7.77h-1.27Z"/><path class="cls-3" d="M142.32,177.6h-6.27a2.12,2.12,0,0,0,.73,1.32,2.29,2.29,0,0,0,1.5.49,2.6,2.6,0,0,0,1.88-.77l1.64.77a3.91,3.91,0,0,1-1.47,1.29,4.57,4.57,0,0,1-2,.42,4,4,0,0,1-3-1.15,3.91,3.91,0,0,1-1.15-2.89,4,4,0,0,1,1.14-3,3.85,3.85,0,0,1,2.88-1.18,4,4,0,0,1,3,1.18,4.21,4.21,0,0,1,1.15,3.1Zm-1.95-1.54a2,2,0,0,0-.77-1.05,2.18,2.18,0,0,0-1.32-.41,2.31,2.31,0,0,0-1.43.46,2.6,2.6,0,0,0-.71,1Z"/><path class="cls-3" d="M143.68,170.15h1.95v10.77h-1.95Z"/><path class="cls-3" d="M151.05,173a4.11,4.11,0,0,1,2.07.55,4,4,0,0,1,1.51,1.49,4.13,4.13,0,0,1,0,4.1,4,4,0,0,1-1.48,1.49,4.14,4.14,0,0,1-2.08.54,3.9,3.9,0,0,1-2.86-1.19,4.11,4.11,0,0,1,.16-5.92A3.88,3.88,0,0,1,151.05,173Zm0,1.84a2,2,0,0,0-1.51.63A2.26,2.26,0,0,0,149,177a2.29,2.29,0,0,0,.6,1.64,2,2,0,0,0,1.52.63,2,2,0,0,0,1.52-.64,2.28,2.28,0,0,0,.61-1.63,2.26,2.26,0,0,0-.6-1.63A2,2,0,0,0,151.08,174.79Z"/><path class="cls-3" d="M158.7,173.15V174a3.75,3.75,0,0,1,1.14-.8,3.41,3.41,0,0,1,1.32-.26,3.38,3.38,0,0,1,2.58,1.15,4.17,4.17,0,0,1,1.06,3,4.07,4.07,0,0,1-1.09,2.9,3.49,3.49,0,0,1-2.61,1.17,3.2,3.2,0,0,1-1.25-.24,3.78,3.78,0,0,1-1.15-.78v3.66h-1.94V173.15Zm2.05,1.6a2,2,0,0,0-1.53.63,2.29,2.29,0,0,0-.61,1.64,2.37,2.37,0,0,0,.61,1.68,2,2,0,0,0,1.53.63,2,2,0,0,0,1.5-.64,2.33,2.33,0,0,0,.61-1.66,2.3,2.3,0,0,0-.6-1.64A2,2,0,0,0,160.75,174.75Z"/><path class="cls-3" d="M166.4,173.15h1.95V174a3.55,3.55,0,0,1,1.11-.82,3.31,3.31,0,0,1,1.34-.27,2.46,2.46,0,0,1,1.31.36,2.6,2.6,0,0,1,.95,1,3.14,3.14,0,0,1,1.14-1,3.08,3.08,0,0,1,1.47-.36,2.72,2.72,0,0,1,1.46.39,2.17,2.17,0,0,1,.9,1,5.25,5.25,0,0,1,.28,2v4.56h-2V177a3.38,3.38,0,0,0-.32-1.79,1.14,1.14,0,0,0-1-.47,1.48,1.48,0,0,0-.89.29,1.58,1.58,0,0,0-.59.79,4.76,4.76,0,0,0-.2,1.61v3.51h-2v-3.76a5,5,0,0,0-.16-1.51,1.29,1.29,0,0,0-.46-.7,1.21,1.21,0,0,0-.74-.23,1.45,1.45,0,0,0-.88.29,1.67,1.67,0,0,0-.6.81,5.05,5.05,0,0,0-.2,1.64v3.46H166.4Z"/><path class="cls-3" d="M188,177.6h-6.26a2.11,2.11,0,0,0,.72,1.32,2.31,2.31,0,0,0,1.5.49,2.6,2.6,0,0,0,1.88-.77l1.65.77A3.86,3.86,0,0,1,186,180.7a4.54,4.54,0,0,1-2,.42,4,4,0,0,1-3-1.15,3.91,3.91,0,0,1-1.15-2.89,4,4,0,0,1,1.15-3,3.82,3.82,0,0,1,2.87-1.18,4,4,0,0,1,3,1.18,4.25,4.25,0,0,1,1.15,3.1ZM186,176.06a2,2,0,0,0-.76-1.05,2.22,2.22,0,0,0-1.32-.41,2.31,2.31,0,0,0-1.43.46,2.5,2.5,0,0,0-.72,1Z"/><path class="cls-3" d="M189.53,173.15h1.95v.8a4.32,4.32,0,0,1,1.2-.78,2.84,2.84,0,0,1,1.1-.22,2.65,2.65,0,0,1,2,.81,2.76,2.76,0,0,1,.68,2v5.13h-1.93v-3.4a8.92,8.92,0,0,0-.12-1.85,1.26,1.26,0,0,0-.44-.69,1.21,1.21,0,0,0-.76-.24,1.44,1.44,0,0,0-1,.39,2.16,2.16,0,0,0-.59,1.1,9.69,9.69,0,0,0-.08,1.57v3.12h-1.95Z"/><path class="cls-3" d="M198.54,170.29h2v2.86h1.16v1.68h-1.16v6.09h-2v-6.09h-1v-1.68h1Z"/><path class="cls-4" d="M49.53,152.31h2.12a6.94,6.94,0,0,1,2.48.31,2.57,2.57,0,0,1,1.19,1,3.16,3.16,0,0,1,.45,1.71,2.92,2.92,0,0,1-.5,1.73,3.05,3.05,0,0,1-1.49,1l2.48,4.67H54.08l-2.36-4.45h-.19v4.45h-2Zm2,4.1h.63a2.4,2.4,0,0,0,1.31-.25.94.94,0,0,0,.36-.83,1,1,0,0,0-.18-.6.9.9,0,0,0-.47-.36,3.47,3.47,0,0,0-1.1-.11h-.55Z"/><path class="cls-4" d="M65.45,159.49H59.19a2.11,2.11,0,0,0,.72,1.32,2.28,2.28,0,0,0,1.51.49,2.61,2.61,0,0,0,1.88-.77l1.64.77a3.74,3.74,0,0,1-1.47,1.29,4.58,4.58,0,0,1-2,.42,4,4,0,0,1-3-1.15A4,4,0,0,1,57.3,159,4.06,4.06,0,0,1,58.45,156a3.82,3.82,0,0,1,2.87-1.18,4,4,0,0,1,3,1.18,4.21,4.21,0,0,1,1.15,3.1Zm-2-1.53a1.93,1.93,0,0,0-.76-1.06,2.22,2.22,0,0,0-1.32-.41A2.31,2.31,0,0,0,60,157a2.55,2.55,0,0,0-.72,1Z"/><path class="cls-4" d="M71.79,156.13l-1.21,1.2a2.06,2.06,0,0,0-1.34-.72.79.79,0,0,0-.51.14.4.4,0,0,0-.07.63,2.09,2.09,0,0,0,.58.36l.72.36a4.27,4.27,0,0,1,1.55,1.13,2.26,2.26,0,0,1,.42,1.36,2.23,2.23,0,0,1-.76,1.73,2.93,2.93,0,0,1-2,.69,3.22,3.22,0,0,1-2.71-1.33l1.2-1.3a2.63,2.63,0,0,0,.8.64,1.73,1.73,0,0,0,.82.25,1,1,0,0,0,.62-.19.51.51,0,0,0,.23-.42c0-.3-.28-.6-.85-.88l-.65-.33c-1.26-.63-1.89-1.43-1.89-2.38a2.06,2.06,0,0,1,.71-1.57,2.58,2.58,0,0,1,1.82-.66,3.15,3.15,0,0,1,1.42.33A3.19,3.19,0,0,1,71.79,156.13Z"/><path class="cls-4" d="M75.4,155v.86a3.55,3.55,0,0,1,1.14-.79,3.25,3.25,0,0,1,1.32-.27A3.41,3.41,0,0,1,80.44,156a4.18,4.18,0,0,1,1.07,2.95,4.06,4.06,0,0,1-1.1,2.9A3.49,3.49,0,0,1,77.8,163a3.24,3.24,0,0,1-1.25-.24A3.78,3.78,0,0,1,75.4,162v3.66H73.47V155Zm2,1.6a2.05,2.05,0,0,0-1.53.63,2.29,2.29,0,0,0-.61,1.64,2.37,2.37,0,0,0,.61,1.68,2.06,2.06,0,0,0,1.53.64,2,2,0,0,0,1.5-.65,2.33,2.33,0,0,0,.61-1.66,2.3,2.3,0,0,0-.6-1.64A2,2,0,0,0,77.45,156.64Z"/><path class="cls-4" d="M86.77,154.84a4.22,4.22,0,0,1,2.07.55,4.09,4.09,0,0,1,1.5,5.59,4,4,0,0,1-1.49,1.49,4.07,4.07,0,0,1-2.07.54,3.86,3.86,0,0,1-2.86-1.19,4.11,4.11,0,0,1,.16-5.92A3.88,3.88,0,0,1,86.77,154.84Zm0,1.84a2,2,0,0,0-1.51.63,2.26,2.26,0,0,0-.61,1.62,2.29,2.29,0,0,0,.6,1.64,2,2,0,0,0,1.51.63,2,2,0,0,0,1.53-.64,2.28,2.28,0,0,0,.61-1.63,2.26,2.26,0,0,0-.6-1.63A2,2,0,0,0,86.8,156.68Z"/><path class="cls-4" d="M92.48,155h2v.8a4.83,4.83,0,0,1,1.2-.78,2.85,2.85,0,0,1,1.11-.22,2.66,2.66,0,0,1,2,.81,2.78,2.78,0,0,1,.67,2v5.13H97.45v-3.4a8.76,8.76,0,0,0-.13-1.85,1.28,1.28,0,0,0-.43-.69,1.24,1.24,0,0,0-.77-.24,1.44,1.44,0,0,0-1,.39,2.09,2.09,0,0,0-.59,1.1,8.41,8.41,0,0,0-.09,1.58v3.11h-2Z"/><path class="cls-4" d="M106,156.13l-1.21,1.2a2.06,2.06,0,0,0-1.34-.72.77.77,0,0,0-.51.14.39.39,0,0,0-.19.34.42.42,0,0,0,.12.29,2.09,2.09,0,0,0,.58.36l.72.36a4.27,4.27,0,0,1,1.55,1.13,2.38,2.38,0,0,1-.34,3.09,2.93,2.93,0,0,1-2,.69,3.22,3.22,0,0,1-2.71-1.33l1.19-1.3a2.8,2.8,0,0,0,.81.64,1.73,1.73,0,0,0,.82.25,1,1,0,0,0,.62-.19.53.53,0,0,0,.23-.42c0-.3-.28-.6-.85-.88l-.65-.33c-1.26-.63-1.89-1.43-1.89-2.38a2.06,2.06,0,0,1,.71-1.57,2.56,2.56,0,0,1,1.82-.66,3.15,3.15,0,0,1,1.42.33A3.19,3.19,0,0,1,106,156.13Z"/><path class="cls-4" d="M108.45,151.84a1.2,1.2,0,0,1,.88.37,1.28,1.28,0,0,1,0,1.79,1.16,1.16,0,0,1-.87.37,1.2,1.2,0,0,1-.89-.37,1.28,1.28,0,0,1-.36-.91,1.19,1.19,0,0,1,.36-.88A1.16,1.16,0,0,1,108.45,151.84Zm-1,3.2h2v7.77h-2Z"/><path class="cls-4" d="M110.37,155h2l2,4.59,2-4.59h2l-3.3,7.77h-1.27Z"/><path class="cls-4" d="M127.18,159.49h-6.27a2.08,2.08,0,0,0,.73,1.32,2.24,2.24,0,0,0,1.5.49,2.61,2.61,0,0,0,1.88-.77l1.64.77a3.74,3.74,0,0,1-1.47,1.29,4.57,4.57,0,0,1-2,.42,4,4,0,0,1-3-1.15A3.91,3.91,0,0,1,119,159a4,4,0,0,1,1.14-2.95,3.85,3.85,0,0,1,2.88-1.18,4,4,0,0,1,3,1.18,4.21,4.21,0,0,1,1.15,3.1Zm-2-1.53a2,2,0,0,0-.77-1.06,2.2,2.2,0,0,0-1.32-.41,2.31,2.31,0,0,0-1.43.46,2.65,2.65,0,0,0-.71,1Z"/><path class="cls-4" d="M132.26,152.31h2l1.52,6.7,1.87-6.7h1.67l1.9,6.7,1.5-6.7h2l-2.37,10.5h-1.91L138.44,156l-1.9,6.79h-1.9Z"/><path class="cls-4" d="M153.79,159.49h-6.26a2.11,2.11,0,0,0,.72,1.32,2.28,2.28,0,0,0,1.51.49,2.63,2.63,0,0,0,1.88-.77l1.64.77a3.74,3.74,0,0,1-1.47,1.29,4.61,4.61,0,0,1-2,.42,4,4,0,0,1-3-1.15,4,4,0,0,1-1.15-2.89,4,4,0,0,1,1.15-2.95,3.82,3.82,0,0,1,2.87-1.18,4,4,0,0,1,3,1.18,4.25,4.25,0,0,1,1.15,3.1ZM151.84,158a1.93,1.93,0,0,0-.76-1.06,2.22,2.22,0,0,0-1.32-.41,2.31,2.31,0,0,0-1.43.46,2.55,2.55,0,0,0-.72,1Z"/><path class="cls-4" d="M157.3,152v3.86a3.7,3.7,0,0,1,1.15-.79,3.2,3.2,0,0,1,1.31-.27,3.42,3.42,0,0,1,2.59,1.15,4.17,4.17,0,0,1,1.06,2.95,4.06,4.06,0,0,1-1.1,2.9A3.45,3.45,0,0,1,159.7,163a3.19,3.19,0,0,1-1.24-.24,3.94,3.94,0,0,1-1.16-.78v.82h-1.93V152Zm2,4.6a2,2,0,0,0-1.52.63,2.25,2.25,0,0,0-.61,1.64,2.33,2.33,0,0,0,.61,1.68,2.1,2.1,0,0,0,3,0,2.33,2.33,0,0,0,.61-1.66,2.3,2.3,0,0,0-.6-1.64A2,2,0,0,0,159.35,156.64Z"/><path class="cls-4" d="M169.78,156.13l-1.21,1.2a2,2,0,0,0-1.33-.72.82.82,0,0,0-.52.14.41.41,0,0,0-.18.34.42.42,0,0,0,.12.29,2.09,2.09,0,0,0,.58.36l.71.36a4.27,4.27,0,0,1,1.55,1.13,2.26,2.26,0,0,1,.42,1.36,2.23,2.23,0,0,1-.76,1.73,2.9,2.9,0,0,1-2,.69,3.23,3.23,0,0,1-2.71-1.33l1.2-1.3a2.89,2.89,0,0,0,.8.64,1.73,1.73,0,0,0,.82.25.92.92,0,0,0,.62-.19.52.52,0,0,0,.24-.42c0-.3-.28-.6-.85-.88l-.66-.33c-1.25-.63-1.88-1.43-1.88-2.38a2,2,0,0,1,.71-1.57,2.55,2.55,0,0,1,1.81-.66,3.19,3.19,0,0,1,1.43.33A3.24,3.24,0,0,1,169.78,156.13Z"/><path class="cls-4" d="M172.22,151.84a1.22,1.22,0,0,1,.88.37,1.26,1.26,0,0,1,.37.9,1.19,1.19,0,0,1-.37.89,1.15,1.15,0,0,1-.86.37,1.19,1.19,0,0,1-.89-.37,1.25,1.25,0,0,1-.37-.91,1.25,1.25,0,0,1,1.24-1.25Zm-1,3.2h1.95v7.77h-1.95Z"/><path class="cls-4" d="M175.2,152.18h2V155h1.16v1.68h-1.16v6.09h-2v-6.09h-1V155h1Z"/><path class="cls-4" d="M187.14,159.49h-6.27a2.08,2.08,0,0,0,.73,1.32,2.24,2.24,0,0,0,1.5.49,2.61,2.61,0,0,0,1.88-.77l1.64.77a3.74,3.74,0,0,1-1.47,1.29,4.58,4.58,0,0,1-2,.42,4,4,0,0,1-3-1.15A3.91,3.91,0,0,1,179,159a4,4,0,0,1,1.14-2.95,3.85,3.85,0,0,1,2.88-1.18,4,4,0,0,1,3,1.18,4.21,4.21,0,0,1,1.15,3.1ZM185.19,158a2,2,0,0,0-.77-1.06,2.2,2.2,0,0,0-1.32-.41,2.31,2.31,0,0,0-1.43.46,2.65,2.65,0,0,0-.71,1Z"/><path class="cls-4" d="M40.19,169.86h2.36a8,8,0,0,1,3.41.56,4.47,4.47,0,0,1,1.83,1.85,6.5,6.5,0,0,1,.32,5.22A4.69,4.69,0,0,1,47,179.18a4.05,4.05,0,0,1-1.54.92,10.56,10.56,0,0,1-2.87.26h-2.4Zm2,1.93v6.62h.93a4.67,4.67,0,0,0,2-.31,2.37,2.37,0,0,0,1-1.06,3.93,3.93,0,0,0,.39-1.83,3.5,3.5,0,0,0-.93-2.6,3.79,3.79,0,0,0-2.71-.82Z"/><path class="cls-4" d="M58,177H51.73a2.11,2.11,0,0,0,.72,1.32,2.26,2.26,0,0,0,1.5.49,2.6,2.6,0,0,0,1.88-.77l1.65.77A3.7,3.7,0,0,1,56,180.14a4.57,4.57,0,0,1-2,.42,4,4,0,0,1-3-1.15,3.91,3.91,0,0,1-1.15-2.89,4,4,0,0,1,1.15-3,3.82,3.82,0,0,1,2.87-1.18,4,4,0,0,1,3,1.18,4.25,4.25,0,0,1,1.15,3.1Zm-2-1.53a1.93,1.93,0,0,0-.76-1.06A2.22,2.22,0,0,0,54,174a2.29,2.29,0,0,0-1.43.46,2.55,2.55,0,0,0-.72,1Z"/><path class="cls-4" d="M64.32,173.68l-1.2,1.2a2.06,2.06,0,0,0-1.34-.72.77.77,0,0,0-.51.14.39.39,0,0,0-.19.34.42.42,0,0,0,.12.29,2.09,2.09,0,0,0,.58.36l.72.36A4.22,4.22,0,0,1,64,176.78a2.21,2.21,0,0,1,.43,1.36,2.27,2.27,0,0,1-.76,1.73,2.93,2.93,0,0,1-2,.69A3.24,3.24,0,0,1,59,179.23l1.2-1.3a2.8,2.8,0,0,0,.81.64,1.7,1.7,0,0,0,.81.25,1,1,0,0,0,.63-.19.53.53,0,0,0,.23-.42c0-.3-.28-.6-.85-.88l-.66-.33c-1.25-.63-1.88-1.43-1.88-2.38a2.06,2.06,0,0,1,.71-1.57,2.56,2.56,0,0,1,1.82-.66,3.12,3.12,0,0,1,2.55,1.29Z"/><path class="cls-4" d="M66.76,169.39a1.27,1.27,0,0,1,.89,2.16,1.23,1.23,0,0,1-1.76,0,1.29,1.29,0,0,1-.37-.91,1.26,1.26,0,0,1,1.24-1.25Zm-1,3.2h1.95v7.77H65.79Z"/><path class="cls-4" d="M75.25,172.59h1.94v6.66a4.41,4.41,0,0,1-.79,2.9,4,4,0,0,1-3.21,1.25,5.64,5.64,0,0,1-1.92-.28,3.44,3.44,0,0,1-1.31-.84,3.38,3.38,0,0,1-.79-1.35h2.14a1.83,1.83,0,0,0,.74.5,3.1,3.1,0,0,0,1.06.17,2.71,2.71,0,0,0,1.27-.25,1.45,1.45,0,0,0,.67-.62,3.2,3.2,0,0,0,.2-1.33,3.21,3.21,0,0,1-1.08.74,3.4,3.4,0,0,1-1.28.22,3.49,3.49,0,0,1-2.64-1.13,4.36,4.36,0,0,1,.07-5.82,3.39,3.39,0,0,1,2.47-1,3.33,3.33,0,0,1,1.26.25,3.85,3.85,0,0,1,1.2.81Zm-2,1.62a2,2,0,0,0-1.52.62,2.13,2.13,0,0,0-.6,1.55,2.19,2.19,0,0,0,.61,1.6,2.1,2.1,0,0,0,1.54.62,2,2,0,0,0,1.5-.61,2.42,2.42,0,0,0,0-3.17A2.08,2.08,0,0,0,73.23,174.21Z"/><path class="cls-4" d="M79.16,172.59h2v.8a5.22,5.22,0,0,1,1.2-.78,2.85,2.85,0,0,1,1.11-.22,2.66,2.66,0,0,1,2,.81,2.78,2.78,0,0,1,.68,2v5.13H84.13V177a8.11,8.11,0,0,0-.13-1.85,1.28,1.28,0,0,0-.43-.69,1.22,1.22,0,0,0-.77-.24,1.44,1.44,0,0,0-1,.39,2.09,2.09,0,0,0-.59,1.1,8.41,8.41,0,0,0-.09,1.58v3.11h-2Z"/><path class="cls-4" d="M98.83,176.23,100,177.6l-.54.49-.53.49,1.68,1.78H98.21l-.69-.71a6.17,6.17,0,0,1-3.08,1,2.7,2.7,0,0,1-2-.71,2.38,2.38,0,0,1-.75-1.81,3.14,3.14,0,0,1,.42-1.58A5.5,5.5,0,0,1,93.61,175a4.2,4.2,0,0,1-1-2.41,2.32,2.32,0,0,1,.67-1.54,2.77,2.77,0,0,1,3.79,0,2.15,2.15,0,0,1,.35,2.66A8.32,8.32,0,0,1,96,175.33c.85,1,1.4,1.63,1.65,1.88C97.82,177.09,98.21,176.77,98.83,176.23Zm-2.61,2a21.23,21.23,0,0,1-1.55-1.8c-.71.59-1.06,1.1-1.06,1.54a.76.76,0,0,0,.29.56,1.07,1.07,0,0,0,.73.26A3.41,3.41,0,0,0,96.22,178.26ZM95,173.92c.53-.45.79-.85.79-1.2a.6.6,0,0,0-.17-.44.64.64,0,0,0-.48-.17.62.62,0,0,0-.46.19.64.64,0,0,0-.18.45A2,2,0,0,0,95,173.92Z"/><path class="cls-4" d="M106.29,169.86h2.37a8,8,0,0,1,3.41.56,4.47,4.47,0,0,1,1.83,1.85,6.5,6.5,0,0,1,.32,5.22,4.59,4.59,0,0,1-1.12,1.69,3.94,3.94,0,0,1-1.53.92,10.61,10.61,0,0,1-2.87.26h-2.41Zm2,1.93v6.62h.93a4.7,4.7,0,0,0,2-.31,2.42,2.42,0,0,0,1-1.06,3.93,3.93,0,0,0,.39-1.83,3.47,3.47,0,0,0-.94-2.6,3.74,3.74,0,0,0-2.7-.82Z"/><path class="cls-4" d="M124.1,177h-6.27a2.12,2.12,0,0,0,.73,1.32,2.24,2.24,0,0,0,1.5.49,2.6,2.6,0,0,0,1.88-.77l1.64.77a3.74,3.74,0,0,1-1.47,1.29,4.57,4.57,0,0,1-2,.42,4,4,0,0,1-3-1.15,3.91,3.91,0,0,1-1.15-2.89,4,4,0,0,1,1.15-3,3.82,3.82,0,0,1,2.87-1.18,4,4,0,0,1,3,1.18,4.21,4.21,0,0,1,1.15,3.1Zm-1.95-1.53a2,2,0,0,0-.76-1.06,2.22,2.22,0,0,0-1.32-.41,2.29,2.29,0,0,0-1.43.46,2.55,2.55,0,0,0-.72,1Z"/><path class="cls-4" d="M124.84,172.59h2l2,4.59,2-4.59h2l-3.31,7.77h-1.26Z"/><path class="cls-4" d="M141.65,177h-6.26a2.11,2.11,0,0,0,.72,1.32,2.27,2.27,0,0,0,1.51.49,2.59,2.59,0,0,0,1.87-.77l1.65.77a3.74,3.74,0,0,1-1.47,1.29,4.61,4.61,0,0,1-2,.42,4,4,0,0,1-3-1.15,4,4,0,0,1-1.15-2.89,4,4,0,0,1,1.15-3,3.82,3.82,0,0,1,2.87-1.18,4,4,0,0,1,3,1.18,4.25,4.25,0,0,1,1.15,3.1Zm-2-1.53a1.93,1.93,0,0,0-.76-1.06,2.22,2.22,0,0,0-1.32-.41,2.31,2.31,0,0,0-1.43.46,2.55,2.55,0,0,0-.72,1Z"/><path class="cls-4" d="M143,169.59H145v10.77H143Z"/><path class="cls-4" d="M150.39,172.39a4.15,4.15,0,0,1,2.06.55,4.08,4.08,0,0,1,2.06,3.53,4.15,4.15,0,0,1-.55,2.06,4,4,0,0,1-1.49,1.49,4.11,4.11,0,0,1-2.08.54,3.85,3.85,0,0,1-2.85-1.19,4.09,4.09,0,0,1,2.85-7Zm0,1.84a2,2,0,0,0-1.52.63,2.25,2.25,0,0,0-.6,1.62,2.29,2.29,0,0,0,.6,1.64,2.12,2.12,0,0,0,3,0,2.5,2.5,0,0,0,0-3.26A2,2,0,0,0,150.42,174.23Z"/><path class="cls-4" d="M158,172.59v.86a3.7,3.7,0,0,1,1.15-.79,3.2,3.2,0,0,1,1.31-.27,3.43,3.43,0,0,1,2.59,1.15,4.22,4.22,0,0,1,1.06,3,4.06,4.06,0,0,1-1.1,2.9,3.45,3.45,0,0,1-2.61,1.17,3.27,3.27,0,0,1-1.25-.24,3.91,3.91,0,0,1-1.15-.78v3.66H156.1V172.59Zm2.05,1.6a2,2,0,0,0-1.52.63,2.25,2.25,0,0,0-.61,1.64,2.33,2.33,0,0,0,.61,1.68,2.1,2.1,0,0,0,3,0,2.38,2.38,0,0,0,.61-1.66,2.3,2.3,0,0,0-.6-1.64A2,2,0,0,0,160.08,174.19Z"/><path class="cls-4" d="M165.74,172.59h1.95v.9a3.13,3.13,0,0,1,2.44-1.1,2.47,2.47,0,0,1,1.32.36,2.58,2.58,0,0,1,.94,1,3.14,3.14,0,0,1,1.14-1,3.09,3.09,0,0,1,1.48-.36,2.67,2.67,0,0,1,1.45.39,2.3,2.3,0,0,1,.91,1,5.53,5.53,0,0,1,.27,2v4.55h-2v-3.94a3.36,3.36,0,0,0-.33-1.79,1.13,1.13,0,0,0-1-.47,1.49,1.49,0,0,0-.9.29,1.71,1.71,0,0,0-.59.79,4.85,4.85,0,0,0-.19,1.62v3.5h-2V176.6a5.39,5.39,0,0,0-.15-1.51,1.39,1.39,0,0,0-.46-.7,1.26,1.26,0,0,0-.75-.23,1.47,1.47,0,0,0-.88.29,1.75,1.75,0,0,0-.59.81,4.81,4.81,0,0,0-.2,1.65v3.45h-1.95Z"/><path class="cls-4" d="M187.29,177H181a2.08,2.08,0,0,0,.73,1.32,2.24,2.24,0,0,0,1.5.49,2.61,2.61,0,0,0,1.88-.77l1.64.77a3.74,3.74,0,0,1-1.47,1.29,4.58,4.58,0,0,1-2,.42,4,4,0,0,1-3-1.15,3.91,3.91,0,0,1-1.15-2.89,4,4,0,0,1,1.14-3,3.84,3.84,0,0,1,2.88-1.18,4,4,0,0,1,3,1.18,4.21,4.21,0,0,1,1.15,3.1Zm-2-1.53a1.89,1.89,0,0,0-.76-1.06,2.22,2.22,0,0,0-1.32-.41,2.31,2.31,0,0,0-1.43.46,2.65,2.65,0,0,0-.71,1Z"/><path class="cls-4" d="M188.86,172.59h1.95v.8a4.83,4.83,0,0,1,1.2-.78,2.85,2.85,0,0,1,1.11-.22,2.66,2.66,0,0,1,2,.81,2.78,2.78,0,0,1,.67,2v5.13h-1.92V177a8.76,8.76,0,0,0-.13-1.85,1.28,1.28,0,0,0-.43-.69,1.22,1.22,0,0,0-.77-.24,1.44,1.44,0,0,0-1,.39,2.09,2.09,0,0,0-.59,1.1,8.41,8.41,0,0,0-.09,1.58v3.11h-1.95Z"/><path class="cls-4" d="M197.88,169.73h2v2.86H201v1.68h-1.15v6.09h-2v-6.09h-1v-1.68h1Z"/></g></g></svg>