<svg xmlns="http://www.w3.org/2000/svg" xmlns:xlink="http://www.w3.org/1999/xlink" viewBox="0 0 241.83 241.83"><defs><style>.cls-1{fill:url(#linear-gradient);}.cls-2{fill:#212020;}.cls-3{fill:url(#linear-gradient-2);}.cls-11,.cls-4,.cls-5{fill:#08cbfe;}.cls-5{font-size:25.23px;letter-spacing:0.13em;}.cls-11,.cls-5{font-family:MyriadPro-Regular, Myriad Pro;}.cls-6{letter-spacing:0.14em;}.cls-7{letter-spacing:0.15em;}.cls-8{letter-spacing:0.12em;}.cls-9{letter-spacing:0.15em;}.cls-10{letter-spacing:0.15em;}.cls-11{font-size:40.73px;letter-spacing:0.15em;}</style><linearGradient id="linear-gradient" x1="44.69" y1="15.63" x2="259.34" y2="312.12" gradientUnits="userSpaceOnUse"><stop offset="0.11" stop-color="#fff"/><stop offset="0.27" stop-color="#f4f6f9"/><stop offset="0.79" stop-color="#d3dbe7"/></linearGradient><linearGradient id="linear-gradient-2" x1="122.65" y1="228.62" x2="122.65" y2="13.21" gradientUnits="userSpaceOnUse"><stop offset="0.14" stop-color="#cdcacb"/><stop offset="0.79" stop-color="#cdcacb"/></linearGradient></defs><title>Asset 23</title><g id="Layer_2" data-name="Layer 2"><g id="Layer_1-2" data-name="Layer 1"><circle class="cls-1" cx="120.92" cy="120.92" r="120.92"/><circle class="cls-2" cx="120.92" cy="120.92" r="104.2"/><path class="cls-3" d="M16.77,117.4A106,106,0,0,1,199.24,47.71a106,106,0,0,1-5.11,151.54A106,106,0,0,1,16.77,117.4Zm0,0a104.34,104.34,0,0,0,6.7,40.08,102.52,102.52,0,1,0,2.68-79.61A104.25,104.25,0,0,0,16.77,117.4Z"/><polygon class="cls-4" points="118.65 51.51 62.08 156.51 175.65 156.51 118.65 51.51"/><ellipse class="cls-2" cx="118.65" cy="139.01" rx="24.01" ry="22.36"/><ellipse class="cls-4" cx="154.08" cy="69.58" rx="16.53" ry="15.4"/><text class="cls-5" transform="translate(49.44 184.02)">A<tspan class="cls-6" x="18.7" y="0">v</tspan><tspan class="cls-7" x="34.37" y="0">e </tspan><tspan class="cls-8" x="59.93" y="0">P</tspan><tspan class="cls-7" x="76.5" y="0">oi</tspan><tspan class="cls-9" x="103.83" y="0">n</tspan><tspan class="cls-10" x="121.52" y="0">t</tspan></text><text class="cls-11" transform="translate(183.92 171.09) scale(0.58)">.</text></g></g></svg>